<svg width="51" height="60" viewBox="0 0 51 60" fill="none" xmlns="http://www.w3.org/2000/svg">
<path d="M40.1209 19.6879H35.4847L41.5474 24.8316H45.827L40.1209 19.6879Z" fill="white"/>
<path d="M40.1209 29.9753H35.4847L41.5474 24.8316H45.827L40.1209 29.9753Z" fill="white"/>
<path d="M50.1734 24.881L25.1922 49.7297L8.45778 33.0841L9.13917 32.4063L25.1912 48.3731L48.8096 24.8803L25.1604 1.35659L10.4724 15.9665L9.79009 15.2878L25.1595 0L50.1734 24.881Z" fill="white"/>
<path d="M37.9811 32.7245H32.8586L25.1749 40.44L14.9298 30.1527H9.80733L25.1749 45.5837L37.9811 32.7245Z" fill="white"/>
<path d="M37.9811 17.2934H32.8586L25.1749 9.57791L14.9298 19.8653H9.80733L25.1749 4.43422L37.9811 17.2934Z" fill="white"/>
<path d="M2.53931 28.5563C1.7615 28.5563 1.14383 28.351 0.6863 27.9403C0.228767 27.5201 0 27.0091 0 26.4075C0 25.6625 0.377465 25.0799 1.13239 24.6597C1.88732 24.2395 3.10551 23.9577 4.78694 23.8145C4.76406 23.4993 4.64968 23.251 4.44379 23.0695C4.24934 22.8785 3.91763 22.783 3.44866 22.783C3.09407 22.783 2.73376 22.8403 2.36773 22.9549C2.00171 23.0695 1.6128 23.2271 1.20102 23.4277L0.291677 22.0381C0.829279 21.7611 1.40119 21.5366 2.00743 21.3647C2.6251 21.1928 3.26564 21.1069 3.92907 21.1069C5.01571 21.1069 5.8507 21.3695 6.43406 21.8948C7.01741 22.4201 7.30909 23.2271 7.30909 24.3159V28.3844H5.25019L5.07862 27.6538H5.00999C4.6554 27.9212 4.27221 28.1409 3.86044 28.3128C3.46009 28.4752 3.01972 28.5563 2.53931 28.5563ZM3.39718 26.9232C3.68314 26.9232 3.92907 26.8707 4.13496 26.7656C4.35228 26.651 4.56961 26.503 4.78694 26.3215V25.0751C3.89475 25.1707 3.27708 25.3235 2.93393 25.5336C2.59078 25.7341 2.41921 25.9729 2.41921 26.2499C2.41921 26.4791 2.50499 26.651 2.67657 26.7656C2.85958 26.8707 3.09979 26.9232 3.39718 26.9232Z" fill="white"/>
<path d="M13.8348 28.5563C13.0456 28.5563 12.3307 28.4131 11.6901 28.1266C11.061 27.8305 10.5578 27.4055 10.1803 26.8516C9.81426 26.2881 9.63125 25.6148 9.63125 24.8316C9.63125 24.0389 9.83714 23.3656 10.2489 22.8117C10.6607 22.2577 11.204 21.8375 11.8789 21.551C12.5537 21.2549 13.2801 21.1069 14.0579 21.1069C14.584 21.1069 15.0473 21.1785 15.4476 21.3218C15.8594 21.465 16.2254 21.6465 16.5457 21.8661L15.3619 23.2271C14.9615 22.9501 14.5783 22.8117 14.2123 22.8117C13.6061 22.8117 13.1199 22.9931 12.7539 23.356C12.3993 23.719 12.222 24.2108 12.222 24.8316C12.222 25.4428 12.3993 25.9347 12.7539 26.3072C13.1199 26.6701 13.5775 26.8516 14.1265 26.8516C14.401 26.8516 14.6698 26.8038 14.9329 26.7083C15.196 26.6032 15.4362 26.4791 15.6535 26.3358L16.6487 27.7111C16.2254 28.0167 15.7679 28.2364 15.2761 28.3701C14.7842 28.4943 14.3038 28.5563 13.8348 28.5563Z" fill="white"/>
<path d="M18.8242 28.3844V21.2788H20.8831L21.0547 22.1956H21.1233C21.4779 21.8996 21.8553 21.6465 22.2557 21.4364C22.656 21.2167 23.1364 21.1069 23.6969 21.1069C24.3031 21.1069 24.7893 21.2119 25.1553 21.422C25.5328 21.6226 25.8302 21.9139 26.0475 22.2959C26.4249 21.9712 26.8253 21.6942 27.2485 21.465C27.6717 21.2262 28.1636 21.1069 28.7241 21.1069C29.6391 21.1069 30.3083 21.3647 30.7315 21.8805C31.1661 22.3866 31.3835 23.0838 31.3835 23.9721V28.3844H28.8613V24.2442C28.8613 23.7285 28.7755 23.3751 28.6039 23.1841C28.4438 22.9931 28.1807 22.8976 27.8147 22.8976C27.3915 22.8976 26.9054 23.1268 26.3563 23.5853V28.3844H23.8342V24.2442C23.8342 23.7285 23.7484 23.3751 23.5768 23.1841C23.4167 22.9931 23.1536 22.8976 22.7876 22.8976C22.3643 22.8976 21.8839 23.1268 21.3463 23.5853V28.3844H18.8242Z" fill="white"/>
<path d="M15.5563 55.1616V51.7083H16.1876V55.1616H15.5563Z" fill="white"/>
<path d="M18.4059 55.2361C18.0974 55.2361 17.8246 55.1687 17.5874 55.0339C17.3521 54.8991 17.1675 54.6978 17.0338 54.43C16.9 54.1622 16.8332 53.8296 16.8332 53.4323C16.8332 53.0279 16.9 52.6936 17.0338 52.4293C17.1675 52.1632 17.3521 51.9655 17.5874 51.836C17.8246 51.7047 18.0974 51.6391 18.4059 51.6391C18.7162 51.6391 18.9899 51.7065 19.227 51.8413C19.4642 51.9743 19.6497 52.1739 19.7834 52.4399C19.9171 52.706 19.984 53.0368 19.984 53.4323C19.984 53.8349 19.9171 54.1702 19.7834 54.438C19.6497 54.7058 19.4642 54.9062 19.227 55.0393C18.9899 55.1705 18.7162 55.2361 18.4059 55.2361ZM18.4059 54.6668C18.6894 54.6668 18.9141 54.5604 19.0799 54.3475C19.2475 54.1347 19.3314 53.8278 19.3314 53.427C19.3314 53.0403 19.2475 52.7397 19.0799 52.5251C18.9141 52.3104 18.6894 52.2031 18.4059 52.2031C18.1277 52.2031 17.9048 52.3113 17.7372 52.5277C17.5696 52.7423 17.4858 53.0439 17.4858 53.4323C17.4858 53.8314 17.5696 54.1373 17.7372 54.3502C17.9048 54.5612 18.1277 54.6668 18.4059 54.6668Z" fill="white"/>
<path d="M20.6239 55.1616V51.7083H21.2551V55.1616H20.6239Z" fill="white"/>
<path d="M21.6814 52.251V51.7083H24.4631V52.251H23.2461L23.3879 52.1074V55.1616H22.7566V52.1074L22.8984 52.251H21.6814Z" fill="white"/>
<path d="M25.7479 55.1616L26.9302 51.7083H27.7219L28.856 55.1616H28.1926L27.9519 54.4167H26.6627L26.4166 55.1616H25.7479ZM26.8232 53.9431H27.8021L27.3153 52.4585L26.8232 53.9431Z" fill="white"/>
<path d="M30.6319 55.2361C30.327 55.2361 30.0613 55.1643 29.8348 55.0206C29.6101 54.8752 29.4354 54.6677 29.3106 54.3981C29.1857 54.1285 29.1233 53.8048 29.1233 53.427C29.1233 53.0368 29.1875 52.7095 29.3159 52.4452C29.4461 52.1792 29.6244 51.9788 29.8508 51.844C30.0791 51.7074 30.3394 51.6391 30.6319 51.6391C31.0366 51.6391 31.3523 51.7367 31.5787 51.9318C31.807 52.1269 31.9532 52.3805 32.0174 52.6927L31.3433 52.8151C31.2881 52.6341 31.1998 52.4878 31.0785 52.3761C30.9573 52.2643 30.8084 52.2085 30.6319 52.2085C30.4767 52.2085 30.3368 52.2537 30.2119 52.3441C30.0871 52.4328 29.9873 52.5676 29.9124 52.7485C29.8393 52.9295 29.8027 53.1556 29.8027 53.427C29.8027 53.6824 29.8348 53.9023 29.899 54.0868C29.965 54.2712 30.0595 54.4131 30.1825 54.5125C30.3056 54.6118 30.4553 54.6615 30.6319 54.6615C30.8583 54.6615 31.0331 54.602 31.1561 54.4832C31.2809 54.3626 31.3433 54.2092 31.3433 54.0229H32.0174C32.0174 54.2801 31.9612 54.4992 31.8489 54.6801C31.7383 54.8592 31.5796 54.9967 31.3728 55.0925C31.1659 55.1882 30.919 55.2361 30.6319 55.2361Z" fill="white"/>
<path d="M32.6528 51.7083H33.5569L34.5358 53.8207H34.4823L35.4613 51.7083H36.3333V55.1616H35.6967V52.4319H35.793L34.7124 54.7838H34.3005L33.2252 52.4426H33.2841V55.1616H32.6528V51.7083Z" fill="white"/>
<path d="M14.0966 59.99C13.958 59.99 13.831 59.9654 13.7156 59.9161C13.6001 59.8658 13.5072 59.792 13.4368 59.6947C13.3665 59.5973 13.3302 59.477 13.328 59.3337H13.5787C13.5787 59.43 13.6023 59.5093 13.6496 59.5716C13.6969 59.6329 13.7596 59.6788 13.8376 59.7094C13.9157 59.739 14.0009 59.7537 14.0933 59.7537C14.1934 59.7537 14.2802 59.7379 14.3539 59.7061C14.4276 59.6744 14.4842 59.6329 14.5238 59.5814C14.5645 59.5289 14.5848 59.4715 14.5848 59.4092C14.5848 59.3217 14.5579 59.2511 14.504 59.1975C14.4501 59.1428 14.3704 59.0985 14.2648 59.0646L13.8987 58.9367C13.7271 58.8754 13.5974 58.8054 13.5094 58.7267C13.4214 58.6479 13.3775 58.5374 13.3775 58.3952C13.3775 58.2356 13.439 58.1054 13.5622 58.0048C13.6864 57.9041 13.8624 57.8538 14.09 57.8538C14.3011 57.8538 14.4661 57.9025 14.5848 57.9998C14.7036 58.0961 14.7718 58.2257 14.7894 58.3887H14.5353C14.5189 58.2935 14.4738 58.2197 14.4001 58.1672C14.3275 58.1136 14.2242 58.0868 14.09 58.0868C13.9536 58.0868 13.8475 58.1169 13.7717 58.177C13.6958 58.2372 13.6579 58.3132 13.6579 58.4051C13.6579 58.4806 13.6815 58.5407 13.7288 58.5856C13.7772 58.6293 13.8525 58.6687 13.9548 58.7037L14.3836 58.8514C14.532 58.9006 14.6492 58.9695 14.7349 59.0581C14.8218 59.1467 14.8652 59.2615 14.8652 59.4026C14.8652 59.512 14.8355 59.611 14.7762 59.6996C14.7179 59.7882 14.6316 59.8587 14.5172 59.9112C14.4028 59.9637 14.2626 59.99 14.0966 59.99Z" fill="white"/>
<path d="M14.9493 58.1098V57.8899H16.5624V58.1098H15.8252L15.8829 58.0507V59.9506H15.6256V58.0507L15.6833 58.1098H14.9493Z" fill="white"/>
<path d="M16.7042 57.8899H16.9615V59.2057C16.9615 59.3993 17.0105 59.5393 17.1083 59.6257C17.2062 59.7111 17.3343 59.7537 17.4926 59.7537C17.6499 59.7537 17.7769 59.7111 17.8737 59.6257C17.9715 59.5393 18.0205 59.3993 18.0205 59.2057V57.8899H18.2778V59.2057C18.2778 59.3786 18.2453 59.5235 18.1804 59.6405C18.1167 59.7565 18.026 59.844 17.9083 59.903C17.7906 59.961 17.6521 59.99 17.4926 59.99C17.3332 59.99 17.1941 59.961 17.0753 59.903C16.9577 59.844 16.8664 59.7565 16.8015 59.6405C16.7367 59.5235 16.7042 59.3786 16.7042 59.2057V57.8899Z" fill="white"/>
<path d="M18.7407 57.8899H19.3476C19.5566 57.8899 19.738 57.9326 19.8919 58.0179C20.0459 58.1021 20.1652 58.2213 20.2499 58.3756C20.3345 58.5298 20.3769 58.7114 20.3769 58.9203C20.3769 59.127 20.3345 59.3075 20.2499 59.4617C20.1652 59.6159 20.0459 59.7362 19.8919 59.8226C19.738 59.9079 19.5566 59.9506 19.3476 59.9506H18.7407V57.8899ZM18.998 58.1163V59.7275H19.3476C19.5038 59.7275 19.6379 59.6925 19.7501 59.6225C19.8634 59.5525 19.9502 59.4568 20.0107 59.3354C20.0723 59.2128 20.1031 59.0745 20.1031 58.9203C20.1031 58.7649 20.0723 58.6271 20.0107 58.5068C19.9502 58.3854 19.8634 58.2902 19.7501 58.2213C19.6379 58.1513 19.5038 58.1163 19.3476 58.1163H18.998Z" fill="white"/>
<path d="M20.7502 59.9506V57.8899H22.0268V58.1098H21.0075V58.8021H21.9674V59.022H21.0075V59.7275H22.0268V59.9506H20.7502Z" fill="white"/>
<path d="M22.4376 57.8899H22.7444L23.7967 59.5864H23.7736V57.8899H24.0309V59.9506H23.7439L22.6553 58.1984H22.6949V59.9506H22.4376V57.8899Z" fill="white"/>
<path d="M24.2176 58.1098V57.8899H25.8307V58.1098H25.0935L25.1512 58.0507V59.9506H24.8939V58.0507L24.9516 58.1098H24.2176Z" fill="white"/>
<path d="M27.3557 59.99C27.1732 59.99 27.0159 59.9446 26.884 59.8538C26.752 59.7619 26.6503 59.635 26.5789 59.4732C26.5074 59.3102 26.4716 59.1215 26.4716 58.9071C26.4716 58.6785 26.5101 58.486 26.5871 58.3296C26.6652 58.1732 26.7707 58.0551 26.9038 57.9752C27.0379 57.8943 27.1886 57.8538 27.3557 57.8538C27.5768 57.8538 27.7543 57.9091 27.8885 58.0195C28.0237 58.1289 28.1167 58.2717 28.1672 58.4478L27.8901 58.5035C27.8473 58.3756 27.7785 58.2738 27.684 58.1984C27.5905 58.1218 27.4811 58.0835 27.3557 58.0835C27.2469 58.0835 27.1463 58.1147 27.0539 58.177C26.9626 58.2383 26.8889 58.3302 26.8329 58.4527C26.7768 58.5752 26.7487 58.7267 26.7487 58.9071C26.7487 59.0712 26.7707 59.2172 26.8147 59.3452C26.8598 59.4732 26.9269 59.5738 27.0159 59.6471C27.1061 59.7204 27.2194 59.757 27.3557 59.757C27.5196 59.757 27.6493 59.7132 27.745 59.6257C27.8418 59.5382 27.8901 59.4234 27.8901 59.2812H28.1705C28.1705 59.4289 28.1365 59.5557 28.0683 59.6618C28.0001 59.7668 27.9044 59.8478 27.7813 59.9047C27.6592 59.9615 27.5174 59.99 27.3557 59.99Z" fill="white"/>
<path d="M28.4948 57.8899H28.7521V58.7989H29.778V57.8899H30.032V59.9506H29.778V59.0187H28.7521V59.9506H28.4948V57.8899Z" fill="white"/>
<path d="M30.2891 59.9506L31.0017 57.8899H31.3151L32.0111 59.9506H31.7406L31.5658 59.4223H30.7411L30.5596 59.9506H30.2891ZM30.8071 59.2221H31.4998L31.1534 58.2017L30.8071 59.2221Z" fill="white"/>
<path d="M32.2593 59.9506V57.8899H32.9256C33.1532 57.8899 33.327 57.9473 33.4468 58.0622C33.5678 58.1759 33.6283 58.3307 33.6283 58.5265C33.6283 58.7201 33.5678 58.8738 33.4468 58.9875C33.327 59.1002 33.1532 59.1565 32.9256 59.1565H32.5199V59.9506H32.2593ZM32.5199 58.9334H32.9256C33.0697 58.9334 33.1785 58.8967 33.2522 58.8235C33.327 58.7502 33.3644 58.6512 33.3644 58.5265C33.3644 58.3996 33.327 58.2985 33.2522 58.223C33.1785 58.1475 33.0697 58.1098 32.9256 58.1098H32.5199V58.9334Z" fill="white"/>
<path d="M33.6141 58.1098V57.8899H35.2273V58.1098H34.49L34.5477 58.0507V59.9506H34.2904V58.0507L34.3481 58.1098H33.6141Z" fill="white"/>
<path d="M35.4119 59.9506V57.8899H36.6886V58.1098H35.6692V58.8021H36.6292V59.022H35.6692V59.7275H36.6886V59.9506H35.4119Z" fill="white"/>
<path d="M37.1026 59.9506V57.8899H37.8251C38.0615 57.8899 38.2402 57.9463 38.3611 58.0589C38.4832 58.1705 38.5442 58.3176 38.5442 58.5003C38.5442 58.6807 38.4832 58.8273 38.3611 58.9399C38.2402 59.0515 38.0615 59.1073 37.8251 59.1073H37.3599V59.9506H37.1026ZM38.2638 59.9506L37.67 59.0154H37.9504L38.597 59.9506H38.2638ZM37.3599 58.9268H37.8053C37.9603 58.9268 38.078 58.8891 38.1583 58.8136C38.2396 58.7371 38.2803 58.6381 38.2803 58.5167C38.2803 58.392 38.2413 58.293 38.1632 58.2197C38.0862 58.1464 37.9735 58.1098 37.8251 58.1098H37.3599V58.9268Z" fill="white"/>
</svg>
