<svg width="83" height="50" viewBox="0 0 83 50" fill="none" xmlns="http://www.w3.org/2000/svg" xmlns:xlink="http://www.w3.org/1999/xlink">
<path d="M0 0H16.6516V26.2376H0V0Z" fill="white"/>
<path d="M0 0H83V26.2376H0V0Z" fill="url(#pattern0_1_31)"/>
<path d="M12.8824 10.8911C12.8824 11.2706 12.848 11.6007 12.7792 11.8812H11.7465C11.8153 12.1452 11.8498 12.4752 11.8498 12.8713C11.8498 13.2508 11.8153 13.5809 11.7465 13.8614H12.7792C12.848 14.1254 12.8824 14.4554 12.8824 14.8515C12.8824 15.231 12.848 15.5611 12.7792 15.8416C12.848 16.1056 12.8824 16.4356 12.8824 16.8317C12.8824 17.2112 12.848 17.5413 12.7792 17.8218H11.7465C11.8153 18.0858 11.8498 18.4158 11.8498 18.8119C11.8498 19.1914 11.8153 19.5215 11.7465 19.802H4.51788C4.44904 19.5215 4.41462 19.1914 4.41462 18.8119C4.41462 18.4158 4.44904 18.0858 4.51788 17.8218C4.44904 17.5413 4.41462 17.2112 4.41462 16.8317C4.41462 16.4356 4.44904 16.1056 4.51788 15.8416C4.44904 15.5611 4.41462 15.231 4.41462 14.8515C4.41462 14.4554 4.44904 14.1254 4.51788 13.8614C4.44904 13.5809 4.41462 13.2508 4.41462 12.8713C4.41462 12.4752 4.44904 12.1452 4.51788 11.8812C4.44904 11.6007 4.41462 11.2706 4.41462 10.8911C4.41462 10.495 4.44904 10.165 4.51788 9.90099C4.44904 9.62046 4.41462 9.29043 4.41462 8.91089C4.41462 8.51485 4.44904 8.18482 4.51788 7.92079C4.44904 7.64026 4.41462 7.31023 4.41462 6.93069C4.41462 6.53465 4.44904 6.20462 4.51788 5.94059H11.7465C11.8153 6.20462 11.8498 6.53465 11.8498 6.93069C11.8498 7.31023 11.8153 7.64026 11.7465 7.92079H12.7792C12.848 8.18482 12.8824 8.51485 12.8824 8.91089C12.8824 9.29043 12.848 9.62046 12.7792 9.90099C12.848 10.165 12.8824 10.495 12.8824 10.8911ZM10.7138 11.8812C10.645 11.6007 10.6106 11.2706 10.6106 10.8911C10.6106 10.495 10.645 10.165 10.7138 9.90099C10.645 9.62046 10.6106 9.29043 10.6106 8.91089C10.6106 8.51485 10.645 8.18482 10.7138 7.92079H6.5832C6.65205 8.18482 6.68647 8.51485 6.68647 8.91089C6.68647 9.29043 6.65205 9.62046 6.5832 9.90099C6.65205 10.165 6.68647 10.495 6.68647 10.8911C6.68647 11.2706 6.65205 11.6007 6.5832 11.8812H10.7138ZM10.7138 15.8416C10.645 15.5611 10.6106 15.231 10.6106 14.8515C10.6106 14.4554 10.645 14.1254 10.7138 13.8614H6.5832C6.65205 14.1254 6.68647 14.4554 6.68647 14.8515C6.68647 15.231 6.65205 15.5611 6.5832 15.8416C6.65205 16.1056 6.68647 16.4356 6.68647 16.8317C6.68647 17.2112 6.65205 17.5413 6.5832 17.8218H10.7138C10.645 17.5413 10.6106 17.2112 10.6106 16.8317C10.6106 16.4356 10.645 16.1056 10.7138 15.8416Z" fill="#1F1F1F"/>
<path d="M23.8802 7.92079C23.8114 7.64026 23.777 7.31023 23.777 6.93069C23.777 6.53465 23.8114 6.20462 23.8802 5.94059H25.9456C26.0144 6.20462 26.0488 6.53465 26.0488 6.93069C26.0488 7.31023 26.0144 7.64026 25.9456 7.92079H23.8802ZM28.0109 17.8218C28.0797 18.0858 28.1142 18.4158 28.1142 18.8119C28.1142 19.1914 28.0797 19.5215 28.0109 19.802H21.8149C21.7461 19.5215 21.7117 19.1914 21.7117 18.8119C21.7117 18.4158 21.7461 18.0858 21.8149 17.8218H23.8802C23.8114 17.5413 23.777 17.2112 23.777 16.8317C23.777 16.4356 23.8114 16.1056 23.8802 15.8416C23.8114 15.5611 23.777 15.231 23.777 14.8515C23.777 14.4554 23.8114 14.1254 23.8802 13.8614C23.8114 13.5809 23.777 13.2508 23.777 12.8713C23.777 12.4752 23.8114 12.1452 23.8802 11.8812H22.3313C22.2624 11.6007 22.228 11.2706 22.228 10.8911C22.228 10.495 22.2624 10.165 22.3313 9.90099H25.9456C26.0144 10.165 26.0488 10.495 26.0488 10.8911C26.0488 11.2706 26.0144 11.6007 25.9456 11.8812C26.0144 12.1452 26.0488 12.4752 26.0488 12.8713C26.0488 13.2508 26.0144 13.5809 25.9456 13.8614C26.0144 14.1254 26.0488 14.4554 26.0488 14.8515C26.0488 15.231 26.0144 15.5611 25.9456 15.8416C26.0144 16.1056 26.0488 16.4356 26.0488 16.8317C26.0488 17.2112 26.0144 17.5413 25.9456 17.8218H28.0109Z" fill="white"/>
<path d="M45.0498 17.8218C45.1186 18.0858 45.153 18.4158 45.153 18.8119C45.153 19.1914 45.1186 19.5215 45.0498 19.802H40.9191C40.8503 19.5215 40.8159 19.1914 40.8159 18.8119C40.8159 18.4158 40.8503 18.0858 40.9191 17.8218H39.8865C39.8176 17.5413 39.7832 17.2112 39.7832 16.8317C39.7832 16.4356 39.8176 16.1056 39.8865 15.8416C39.8176 15.5611 39.7832 15.231 39.7832 14.8515C39.7832 14.4554 39.8176 14.1254 39.8865 13.8614C39.8176 13.5809 39.7832 13.2508 39.7832 12.8713C39.7832 12.4752 39.8176 12.1452 39.8865 11.8812H37.8212C37.7523 11.6007 37.7179 11.2706 37.7179 10.8911C37.7179 10.495 37.7523 10.165 37.8212 9.90099H39.8865C39.8176 9.62046 39.7832 9.29043 39.7832 8.91089C39.7832 8.51485 39.8176 8.18482 39.8865 7.92079C39.8176 7.64026 39.7832 7.31023 39.7832 6.93069C39.7832 6.53465 39.8176 6.20462 39.8865 5.94059H41.9518C42.0206 6.20462 42.0551 6.53465 42.0551 6.93069C42.0551 7.31023 42.0206 7.64026 41.9518 7.92079C42.0206 8.18482 42.0551 8.51485 42.0551 8.91089C42.0551 9.29043 42.0206 9.62046 41.9518 9.90099H45.0498C45.1186 10.165 45.153 10.495 45.153 10.8911C45.153 11.2706 45.1186 11.6007 45.0498 11.8812H41.9518C42.0206 12.1452 42.0551 12.4752 42.0551 12.8713C42.0551 13.2508 42.0206 13.5809 41.9518 13.8614C42.0206 14.1254 42.0551 14.4554 42.0551 14.8515C42.0551 15.231 42.0206 15.5611 41.9518 15.8416C42.0206 16.1056 42.0551 16.4356 42.0551 16.8317C42.0551 17.2112 42.0206 17.5413 41.9518 17.8218H45.0498Z" fill="white"/>
<path d="M62.5792 10.8911C62.5792 11.2706 62.5447 11.6007 62.4759 11.8812H61.4432C61.5121 12.1452 61.5465 12.4752 61.5465 12.8713C61.5465 13.2508 61.5121 13.5809 61.4432 13.8614H62.4759C62.5447 14.1254 62.5792 14.4554 62.5792 14.8515C62.5792 15.231 62.5447 15.5611 62.4759 15.8416C62.5447 16.1056 62.5792 16.4356 62.5792 16.8317C62.5792 17.2112 62.5447 17.5413 62.4759 17.8218H61.4432C61.5121 18.0858 61.5465 18.4158 61.5465 18.8119C61.5465 19.1914 61.5121 19.5215 61.4432 19.802H54.2146C54.1458 19.5215 54.1114 19.1914 54.1114 18.8119C54.1114 18.4158 54.1458 18.0858 54.2146 17.8218C54.1458 17.5413 54.1114 17.2112 54.1114 16.8317C54.1114 16.4356 54.1458 16.1056 54.2146 15.8416C54.1458 15.5611 54.1114 15.231 54.1114 14.8515C54.1114 14.4554 54.1458 14.1254 54.2146 13.8614C54.1458 13.5809 54.1114 13.2508 54.1114 12.8713C54.1114 12.4752 54.1458 12.1452 54.2146 11.8812C54.1458 11.6007 54.1114 11.2706 54.1114 10.8911C54.1114 10.495 54.1458 10.165 54.2146 9.90099C54.1458 9.62046 54.1114 9.29043 54.1114 8.91089C54.1114 8.51485 54.1458 8.18482 54.2146 7.92079C54.1458 7.64026 54.1114 7.31023 54.1114 6.93069C54.1114 6.53465 54.1458 6.20462 54.2146 5.94059H61.4432C61.5121 6.20462 61.5465 6.53465 61.5465 6.93069C61.5465 7.31023 61.5121 7.64026 61.4432 7.92079H62.4759C62.5447 8.18482 62.5792 8.51485 62.5792 8.91089C62.5792 9.29043 62.5447 9.62046 62.4759 9.90099C62.5447 10.165 62.5792 10.495 62.5792 10.8911ZM60.4106 11.8812C60.3417 11.6007 60.3073 11.2706 60.3073 10.8911C60.3073 10.495 60.3417 10.165 60.4106 9.90099C60.3417 9.62046 60.3073 9.29043 60.3073 8.91089C60.3073 8.51485 60.3417 8.18482 60.4106 7.92079H56.2799C56.3488 8.18482 56.3832 8.51485 56.3832 8.91089C56.3832 9.29043 56.3488 9.62046 56.2799 9.90099C56.3488 10.165 56.3832 10.495 56.3832 10.8911C56.3832 11.2706 56.3488 11.6007 56.2799 11.8812H60.4106ZM60.4106 15.8416C60.3417 15.5611 60.3073 15.231 60.3073 14.8515C60.3073 14.4554 60.3417 14.1254 60.4106 13.8614H56.2799C56.3488 14.1254 56.3832 14.4554 56.3832 14.8515C56.3832 15.231 56.3488 15.5611 56.2799 15.8416C56.3488 16.1056 56.3832 16.4356 56.3832 16.8317C56.3832 17.2112 56.3488 17.5413 56.2799 17.8218H60.4106C60.3417 17.5413 60.3073 17.2112 60.3073 16.8317C60.3073 16.4356 60.3417 16.1056 60.4106 15.8416Z" fill="white"/>
<path d="M79.2308 10.8911C79.2308 11.2706 79.1964 11.6007 79.1275 11.8812H78.353C78.4219 12.1452 78.4563 12.4752 78.4563 12.8713C78.4563 13.2508 78.4219 13.5809 78.353 13.8614H77.5785C77.6474 14.1254 77.6818 14.4554 77.6818 14.8515C77.6818 15.231 77.6474 15.5611 77.5785 15.8416H77.0622C77.1311 16.1056 77.1655 16.4356 77.1655 16.8317C77.1655 17.2112 77.1311 17.5413 77.0622 17.8218H76.2877C76.3566 18.0858 76.391 18.4158 76.391 18.8119C76.391 19.1914 76.3566 19.5215 76.2877 19.802H75.7714C75.8402 20.066 75.8746 20.396 75.8746 20.7921C75.8746 21.1716 75.8402 21.5016 75.7714 21.7822H74.7387C74.8076 22.0462 74.842 22.3762 74.842 22.7723C74.842 23.1518 74.8076 23.4818 74.7387 23.7624H71.6407C71.5719 23.4818 71.5375 23.1518 71.5375 22.7723C71.5375 22.3762 71.5719 22.0462 71.6407 21.7822H73.7061C73.6372 21.5016 73.6028 21.1716 73.6028 20.7921C73.6028 20.396 73.6372 20.066 73.7061 19.802C73.6372 19.5215 73.6028 19.1914 73.6028 18.8119C73.6028 18.4158 73.6372 18.0858 73.7061 17.8218H72.6734C72.6046 17.5413 72.5701 17.2112 72.5701 16.8317C72.5701 16.4356 72.6046 16.1056 72.6734 15.8416H72.1571C72.0882 15.5611 72.0538 15.231 72.0538 14.8515C72.0538 14.4554 72.0882 14.1254 72.1571 13.8614H71.3826C71.3137 13.5809 71.2793 13.2508 71.2793 12.8713C71.2793 12.4752 71.3137 12.1452 71.3826 11.8812H70.6081C70.5392 11.6007 70.5048 11.2706 70.5048 10.8911C70.5048 10.495 70.5392 10.165 70.6081 9.90099H72.6734C72.7422 10.165 72.7767 10.495 72.7767 10.8911C72.7767 11.2706 72.7422 11.6007 72.6734 11.8812H73.4479C73.5167 12.1452 73.5512 12.4752 73.5512 12.8713C73.5512 13.2508 73.5167 13.5809 73.4479 13.8614H74.2224C74.2912 14.1254 74.3257 14.4554 74.3257 14.8515C74.3257 15.231 74.2912 15.5611 74.2224 15.8416C74.2912 16.1056 74.3257 16.4356 74.3257 16.8317C74.3257 17.2112 74.2912 17.5413 74.2224 17.8218H74.9969C74.928 17.5413 74.8936 17.2112 74.8936 16.8317C74.8936 16.4356 74.928 16.1056 74.9969 15.8416H75.5132C75.4444 15.5611 75.41 15.231 75.41 14.8515C75.41 14.4554 75.4444 14.1254 75.5132 13.8614H76.2877C76.2189 13.5809 76.1844 13.2508 76.1844 12.8713C76.1844 12.4752 76.2189 12.1452 76.2877 11.8812H77.0622C76.9934 11.6007 76.9589 11.2706 76.9589 10.8911C76.9589 10.495 76.9934 10.165 77.0622 9.90099H79.1275C79.1964 10.165 79.2308 10.495 79.2308 10.8911Z" fill="white"/>
<path d="M9.29393 38.1188C9.36278 38.3828 9.3972 38.7129 9.3972 39.1089C9.3972 39.4884 9.36278 39.8185 9.29393 40.099C9.36278 40.363 9.3972 40.6931 9.3972 41.0891C9.3972 41.4686 9.36278 41.7987 9.29393 42.0792H8.26128C8.33012 42.3432 8.36454 42.6733 8.36454 43.0693C8.36454 43.4488 8.33012 43.7789 8.26128 44.0594H7.22862C7.29746 44.3234 7.33188 44.6535 7.33188 45.0495C7.33188 45.429 7.29746 45.7591 7.22862 46.0396H1.03266C0.963816 45.7591 0.929394 45.429 0.929394 45.0495C0.929394 44.6535 0.963816 44.3234 1.03266 44.0594C0.963816 43.7789 0.929394 43.4488 0.929394 43.0693C0.929394 42.6733 0.963816 42.3432 1.03266 42.0792C0.963816 41.7987 0.929394 41.4686 0.929394 41.0891C0.929394 40.6931 0.963816 40.363 1.03266 40.099C0.963816 39.8185 0.929394 39.4884 0.929394 39.1089C0.929394 38.7129 0.963816 38.3828 1.03266 38.1188C0.963816 37.8383 0.929394 37.5083 0.929394 37.1287C0.929394 36.7327 0.963816 36.4026 1.03266 36.1386C0.963816 35.8581 0.929394 35.5281 0.929394 35.1485C0.929394 34.7525 0.963816 34.4224 1.03266 34.1584C0.963816 33.8779 0.929394 33.5479 0.929394 33.1683C0.929394 32.7723 0.963816 32.4422 1.03266 32.1782H7.22862C7.29746 32.4422 7.33188 32.7723 7.33188 33.1683C7.33188 33.5479 7.29746 33.8779 7.22862 34.1584H8.26128C8.33012 34.4224 8.36454 34.7525 8.36454 35.1485C8.36454 35.5281 8.33012 35.8581 8.26128 36.1386H9.29393C9.36278 36.4026 9.3972 36.7327 9.3972 37.1287C9.3972 37.5083 9.36278 37.8383 9.29393 38.1188ZM7.22862 42.0792C7.15977 41.7987 7.12535 41.4686 7.12535 41.0891C7.12535 40.6931 7.15977 40.363 7.22862 40.099C7.15977 39.8185 7.12535 39.4884 7.12535 39.1089C7.12535 38.7129 7.15977 38.3828 7.22862 38.1188C7.15977 37.8383 7.12535 37.5083 7.12535 37.1287C7.12535 36.7327 7.15977 36.4026 7.22862 36.1386H6.19596C6.12711 35.8581 6.09269 35.5281 6.09269 35.1485C6.09269 34.7525 6.12711 34.4224 6.19596 34.1584H3.09798C3.16682 34.4224 3.20124 34.7525 3.20124 35.1485C3.20124 35.5281 3.16682 35.8581 3.09798 36.1386C3.16682 36.4026 3.20124 36.7327 3.20124 37.1287C3.20124 37.5083 3.16682 37.8383 3.09798 38.1188C3.16682 38.3828 3.20124 38.7129 3.20124 39.1089C3.20124 39.4884 3.16682 39.8185 3.09798 40.099C3.16682 40.363 3.20124 40.6931 3.20124 41.0891C3.20124 41.4686 3.16682 41.7987 3.09798 42.0792C3.16682 42.3432 3.20124 42.6733 3.20124 43.0693C3.20124 43.4488 3.16682 43.7789 3.09798 44.0594H6.19596C6.12711 43.7789 6.09269 43.4488 6.09269 43.0693C6.09269 42.6733 6.12711 42.3432 6.19596 42.0792H7.22862Z" fill="white"/>
<path d="M19.7339 39.1089C19.7339 39.4884 19.6995 39.8185 19.6306 40.099C19.6995 40.363 19.7339 40.6931 19.7339 41.0891C19.7339 41.4686 19.6995 41.7987 19.6306 42.0792H14.2092C14.278 42.3432 14.3124 42.6733 14.3124 43.0693C14.3124 43.4488 14.278 43.7789 14.2092 44.0594H18.598C18.6668 44.3234 18.7012 44.6535 18.7012 45.0495C18.7012 45.429 18.6668 45.7591 18.598 46.0396H13.4347C13.3658 45.7591 13.3314 45.429 13.3314 45.0495C13.3314 44.6535 13.3658 44.3234 13.4347 44.0594H12.1438C12.075 43.7789 12.0406 43.4488 12.0406 43.0693C12.0406 42.6733 12.075 42.3432 12.1438 42.0792H11.3693C11.3005 41.7987 11.2661 41.4686 11.2661 41.0891C11.2661 40.6931 11.3005 40.363 11.3693 40.099H12.1438C12.075 39.8185 12.0406 39.4884 12.0406 39.1089C12.0406 38.7129 12.075 38.3828 12.1438 38.1188H13.4347C13.3658 37.8383 13.3314 37.5083 13.3314 37.1287C13.3314 36.7327 13.3658 36.4026 13.4347 36.1386H18.598C18.6668 36.4026 18.7012 36.7327 18.7012 37.1287C18.7012 37.5083 18.6668 37.8383 18.598 38.1188H19.6306C19.6995 38.3828 19.7339 38.7129 19.7339 39.1089ZM17.5653 40.099C17.4965 39.8185 17.462 39.4884 17.462 39.1089C17.462 38.7129 17.4965 38.3828 17.5653 38.1188H14.2092C14.278 38.3828 14.3124 38.7129 14.3124 39.1089C14.3124 39.4884 14.278 39.8185 14.2092 40.099H17.5653Z" fill="white"/>
<path d="M29.5542 43.0693C29.5542 43.4488 29.5198 43.7789 29.451 44.0594H28.4183C28.4871 44.3234 28.5216 44.6535 28.5216 45.0495C28.5216 45.429 28.4871 45.7591 28.4183 46.0396H22.7387C22.6698 45.7591 22.6354 45.429 22.6354 45.0495C22.6354 44.6535 22.6698 44.3234 22.7387 44.0594H27.3856C27.3168 43.7789 27.2824 43.4488 27.2824 43.0693C27.2824 42.6733 27.3168 42.3432 27.3856 42.0792H23.255C23.1862 41.7987 23.1517 41.4686 23.1517 41.0891C23.1517 40.6931 23.1862 40.363 23.255 40.099H22.2223C22.1535 39.8185 22.1191 39.4884 22.1191 39.1089C22.1191 38.7129 22.1535 38.3828 22.2223 38.1188H23.255C23.1862 37.8383 23.1517 37.5083 23.1517 37.1287C23.1517 36.7327 23.1862 36.4026 23.255 36.1386H28.9346C29.0035 36.4026 29.0379 36.7327 29.0379 37.1287C29.0379 37.5083 29.0035 37.8383 28.9346 38.1188H24.2877C24.3565 38.3828 24.3909 38.7129 24.3909 39.1089C24.3909 39.4884 24.3565 39.8185 24.2877 40.099H28.4183C28.4871 40.363 28.5216 40.6931 28.5216 41.0891C28.5216 41.4686 28.4871 41.7987 28.4183 42.0792H29.451C29.5198 42.3432 29.5542 42.6733 29.5542 43.0693Z" fill="white"/>
<path d="M35.1407 34.1584C35.0718 33.8779 35.0374 33.5479 35.0374 33.1683C35.0374 32.7723 35.0718 32.4422 35.1407 32.1782H37.206C37.2748 32.4422 37.3093 32.7723 37.3093 33.1683C37.3093 33.5479 37.2748 33.8779 37.206 34.1584H35.1407ZM39.2713 44.0594C39.3402 44.3234 39.3746 44.6535 39.3746 45.0495C39.3746 45.429 39.3402 45.7591 39.2713 46.0396H33.0754C33.0065 45.7591 32.9721 45.429 32.9721 45.0495C32.9721 44.6535 33.0065 44.3234 33.0754 44.0594H35.1407C35.0718 43.7789 35.0374 43.4488 35.0374 43.0693C35.0374 42.6733 35.0718 42.3432 35.1407 42.0792C35.0718 41.7987 35.0374 41.4686 35.0374 41.0891C35.0374 40.6931 35.0718 40.363 35.1407 40.099C35.0718 39.8185 35.0374 39.4884 35.0374 39.1089C35.0374 38.7129 35.0718 38.3828 35.1407 38.1188H33.5917C33.5228 37.8383 33.4884 37.5083 33.4884 37.1287C33.4884 36.7327 33.5228 36.4026 33.5917 36.1386H37.206C37.2748 36.4026 37.3093 36.7327 37.3093 37.1287C37.3093 37.5083 37.2748 37.8383 37.206 38.1188C37.2748 38.3828 37.3093 38.7129 37.3093 39.1089C37.3093 39.4884 37.2748 39.8185 37.206 40.099C37.2748 40.363 37.3093 40.6931 37.3093 41.0891C37.3093 41.4686 37.2748 41.7987 37.206 42.0792C37.2748 42.3432 37.3093 42.6733 37.3093 43.0693C37.3093 43.4488 37.2748 43.7789 37.206 44.0594H39.2713Z" fill="white"/>
<path d="M50.6406 38.1188C50.7095 38.3828 50.7439 38.7129 50.7439 39.1089C50.7439 39.4884 50.7095 39.8185 50.6406 40.099C50.7095 40.363 50.7439 40.6931 50.7439 41.0891C50.7439 41.4686 50.7095 41.7987 50.6406 42.0792C50.7095 42.3432 50.7439 42.6733 50.7439 43.0693C50.7439 43.4488 50.7095 43.7789 50.6406 44.0594C50.7095 44.3234 50.7439 44.6535 50.7439 45.0495C50.7439 45.429 50.7095 45.7591 50.6406 46.0396H49.608C49.6768 46.3036 49.7113 46.6337 49.7113 47.0297C49.7113 47.4092 49.6768 47.7393 49.608 48.0198H48.5753C48.6442 48.2838 48.6786 48.6139 48.6786 49.0099C48.6786 49.3894 48.6442 49.7195 48.5753 50H44.4447C44.3759 49.7195 44.3414 49.3894 44.3414 49.0099C44.3414 48.6139 44.3759 48.2838 44.4447 48.0198H47.5427C47.4738 47.7393 47.4394 47.4092 47.4394 47.0297C47.4394 46.6337 47.4738 46.3036 47.5427 46.0396H48.5753C48.5065 45.7591 48.4721 45.429 48.4721 45.0495C48.4721 44.6535 48.5065 44.3234 48.5753 44.0594H47.5427C47.4738 43.7789 47.4394 43.4488 47.4394 43.0693C47.4394 42.6733 47.4738 42.3432 47.5427 42.0792H48.5753C48.5065 41.7987 48.4721 41.4686 48.4721 41.0891C48.4721 40.6931 48.5065 40.363 48.5753 40.099C48.5065 39.8185 48.4721 39.4884 48.4721 39.1089C48.4721 38.7129 48.5065 38.3828 48.5753 38.1188H45.2192C45.288 38.3828 45.3225 38.7129 45.3225 39.1089C45.3225 39.4884 45.288 39.8185 45.2192 40.099H44.4447C44.5135 40.363 44.548 40.6931 44.548 41.0891C44.548 41.4686 44.5135 41.7987 44.4447 42.0792H45.2192C45.288 42.3432 45.3225 42.6733 45.3225 43.0693C45.3225 43.4488 45.288 43.7789 45.2192 44.0594H47.5427C47.6115 44.3234 47.6459 44.6535 47.6459 45.0495C47.6459 45.429 47.6115 45.7591 47.5427 46.0396H44.4447C44.3759 45.7591 44.3414 45.429 44.3414 45.0495C44.3414 44.6535 44.3759 44.3234 44.4447 44.0594H43.1539C43.085 43.7789 43.0506 43.4488 43.0506 43.0693C43.0506 42.6733 43.085 42.3432 43.1539 42.0792H42.3794C42.3105 41.7987 42.2761 41.4686 42.2761 41.0891C42.2761 40.6931 42.3105 40.363 42.3794 40.099H43.1539C43.085 39.8185 43.0506 39.4884 43.0506 39.1089C43.0506 38.7129 43.085 38.3828 43.1539 38.1188H44.4447C44.3759 37.8383 44.3414 37.5083 44.3414 37.1287C44.3414 36.7327 44.3759 36.4026 44.4447 36.1386H50.6406C50.7095 36.4026 50.7439 36.7327 50.7439 37.1287C50.7439 37.5083 50.7095 37.8383 50.6406 38.1188Z" fill="white"/>
<path d="M54.6265 37.1287C54.6265 37.5083 54.5921 37.8383 54.5232 38.1188H55.5559C55.6247 38.3828 55.6591 38.7129 55.6591 39.1089C55.6591 39.4884 55.6247 39.8185 55.5559 40.099H54.7814C54.8502 40.363 54.8846 40.6931 54.8846 41.0891C54.8846 41.4686 54.8502 41.7987 54.7814 42.0792C54.8502 42.3432 54.8846 42.6733 54.8846 43.0693C54.8846 43.4488 54.8502 43.7789 54.7814 44.0594C54.8502 44.3234 54.8846 44.6535 54.8846 45.0495C54.8846 45.429 54.8502 45.7591 54.7814 46.0396H52.7161C52.6472 45.7591 52.6128 45.429 52.6128 45.0495C52.6128 44.6535 52.6472 44.3234 52.7161 44.0594C52.6472 43.7789 52.6128 43.4488 52.6128 43.0693C52.6128 42.6733 52.6472 42.3432 52.7161 42.0792C52.6472 41.7987 52.6128 41.4686 52.6128 41.0891C52.6128 40.6931 52.6472 40.363 52.7161 40.099C52.6472 39.8185 52.6128 39.4884 52.6128 39.1089C52.6128 38.7129 52.6472 38.3828 52.7161 38.1188C52.6472 37.8383 52.6128 37.5083 52.6128 37.1287C52.6128 36.7327 52.6472 36.4026 52.7161 36.1386H54.5232C54.5921 36.4026 54.6265 36.7327 54.6265 37.1287ZM60.9773 40.099C61.0462 40.363 61.0806 40.6931 61.0806 41.0891C61.0806 41.4686 61.0462 41.7987 60.9773 42.0792C61.0462 42.3432 61.0806 42.6733 61.0806 43.0693C61.0806 43.4488 61.0462 43.7789 60.9773 44.0594C61.0462 44.3234 61.0806 44.6535 61.0806 45.0495C61.0806 45.429 61.0462 45.7591 60.9773 46.0396H58.912C58.8432 45.7591 58.8087 45.429 58.8087 45.0495C58.8087 44.6535 58.8432 44.3234 58.912 44.0594C58.8432 43.7789 58.8087 43.4488 58.8087 43.0693C58.8087 42.6733 58.8432 42.3432 58.912 42.0792C58.8432 41.7987 58.8087 41.4686 58.8087 41.0891C58.8087 40.6931 58.8432 40.363 58.912 40.099C58.8432 39.8185 58.8087 39.4884 58.8087 39.1089C58.8087 38.7129 58.8432 38.3828 58.912 38.1188H55.5559C55.487 37.8383 55.4526 37.5083 55.4526 37.1287C55.4526 36.7327 55.487 36.4026 55.5559 36.1386H59.6865C59.7553 36.4026 59.7898 36.7327 59.7898 37.1287C59.7898 37.5083 59.7553 37.8383 59.6865 38.1188H60.9773C61.0462 38.3828 61.0806 38.7129 61.0806 39.1089C61.0806 39.4884 61.0462 39.8185 60.9773 40.099Z" fill="white"/>
<defs>
<pattern id="pattern0_1_31" patternUnits="userSpaceOnUse" patternTransform="matrix(16 0 0 26 0 -2)" preserveAspectRatio="none" viewBox="0 -2 16 26" width="1" height="1">
<use xlink:href="#pattern0_1_31_inner" transform="translate(-16 -26)"/>
<use xlink:href="#pattern0_1_31_inner" transform="translate(0 -26)"/>
<use xlink:href="#pattern0_1_31_inner" transform="translate(-16 0)"/>
<g id="pattern0_1_31_inner">
<mask id="path-2-outside-1_1_31" maskUnits="userSpaceOnUse" x="0" y="-2" width="18" height="30" fill="black">
<rect fill="white" y="-2" width="18" height="30"/>
<path d="M0 0H16V26H0V0Z"/>
</mask>
<path d="M16 0H18V-2H16V0ZM16 26V28H18V26H16ZM0 0V2H16V0V-2H0V0ZM16 0H14V26H16H18V0H16ZM16 26V24H0V26V28H16V26Z" fill="white" mask="url(#path-2-outside-1_1_31)"/>
</g>
</pattern></defs>
</svg>
