<svg xmlns="http://www.w3.org/2000/svg" version="1.1" xmlns:xlink="http://www.w3.org/1999/xlink" width="493" height="493"><svg xmlns="http://www.w3.org/2000/svg" version="1.1" xmlns:xlink="http://www.w3.org/1999/xlink" width="493" height="493"><svg width="493" height="493" viewBox="0 0 493 493" fill="none" xmlns="http://www.w3.org/2000/svg" xmlns:xlink="http://www.w3.org/1999/xlink">
<rect width="493" height="493" fill="white"></rect>
<rect x="182" y="141" width="258" height="212" fill="white"></rect>
<rect x="53" y="141" width="129" height="212" fill="black"></rect>
<rect x="53" y="141" width="387" height="212" fill="url(#pattern0_15_15)"></rect>
<path d="M151.8 229C151.8 232.067 151.533 234.733 151 237H143C143.533 239.133 143.8 241.8 143.8 245C143.8 248.067 143.533 250.733 143 253H151C151.533 255.133 151.8 257.8 151.8 261C151.8 264.067 151.533 266.733 151 269C151.533 271.133 151.8 273.8 151.8 277C151.8 280.067 151.533 282.733 151 285H143C143.533 287.133 143.8 289.8 143.8 293C143.8 296.067 143.533 298.733 143 301H87C86.4667 298.733 86.2 296.067 86.2 293C86.2 289.8 86.4667 287.133 87 285C86.4667 282.733 86.2 280.067 86.2 277C86.2 273.8 86.4667 271.133 87 269C86.4667 266.733 86.2 264.067 86.2 261C86.2 257.8 86.4667 255.133 87 253C86.4667 250.733 86.2 248.067 86.2 245C86.2 241.8 86.4667 239.133 87 237C86.4667 234.733 86.2 232.067 86.2 229C86.2 225.8 86.4667 223.133 87 221C86.4667 218.733 86.2 216.067 86.2 213C86.2 209.8 86.4667 207.133 87 205C86.4667 202.733 86.2 200.067 86.2 197C86.2 193.8 86.4667 191.133 87 189H143C143.533 191.133 143.8 193.8 143.8 197C143.8 200.067 143.533 202.733 143 205H151C151.533 207.133 151.8 209.8 151.8 213C151.8 216.067 151.533 218.733 151 221C151.533 223.133 151.8 225.8 151.8 229ZM135 237C134.467 234.733 134.2 232.067 134.2 229C134.2 225.8 134.467 223.133 135 221C134.467 218.733 134.2 216.067 134.2 213C134.2 209.8 134.467 207.133 135 205H103C103.533 207.133 103.8 209.8 103.8 213C103.8 216.067 103.533 218.733 103 221C103.533 223.133 103.8 225.8 103.8 229C103.8 232.067 103.533 234.733 103 237H135ZM135 269C134.467 266.733 134.2 264.067 134.2 261C134.2 257.8 134.467 255.133 135 253H103C103.533 255.133 103.8 257.8 103.8 261C103.8 264.067 103.533 266.733 103 269C103.533 271.133 103.8 273.8 103.8 277C103.8 280.067 103.533 282.733 103 285H135C134.467 282.733 134.2 280.067 134.2 277C134.2 273.8 134.467 271.133 135 269Z" fill="white"></path>
<path d="M284.8 229C284.8 232.067 284.533 234.733 284 237H276C276.533 239.133 276.8 241.8 276.8 245C276.8 248.067 276.533 250.733 276 253H284C284.533 255.133 284.8 257.8 284.8 261C284.8 264.067 284.533 266.733 284 269C284.533 271.133 284.8 273.8 284.8 277C284.8 280.067 284.533 282.733 284 285H276C276.533 287.133 276.8 289.8 276.8 293C276.8 296.067 276.533 298.733 276 301H220C219.467 298.733 219.2 296.067 219.2 293C219.2 289.8 219.467 287.133 220 285C219.467 282.733 219.2 280.067 219.2 277C219.2 273.8 219.467 271.133 220 269C219.467 266.733 219.2 264.067 219.2 261C219.2 257.8 219.467 255.133 220 253C219.467 250.733 219.2 248.067 219.2 245C219.2 241.8 219.467 239.133 220 237C219.467 234.733 219.2 232.067 219.2 229C219.2 225.8 219.467 223.133 220 221C219.467 218.733 219.2 216.067 219.2 213C219.2 209.8 219.467 207.133 220 205C219.467 202.733 219.2 200.067 219.2 197C219.2 193.8 219.467 191.133 220 189H276C276.533 191.133 276.8 193.8 276.8 197C276.8 200.067 276.533 202.733 276 205H284C284.533 207.133 284.8 209.8 284.8 213C284.8 216.067 284.533 218.733 284 221C284.533 223.133 284.8 225.8 284.8 229ZM268 237C267.467 234.733 267.2 232.067 267.2 229C267.2 225.8 267.467 223.133 268 221C267.467 218.733 267.2 216.067 267.2 213C267.2 209.8 267.467 207.133 268 205H236C236.533 207.133 236.8 209.8 236.8 213C236.8 216.067 236.533 218.733 236 221C236.533 223.133 236.8 225.8 236.8 229C236.8 232.067 236.533 234.733 236 237H268ZM268 269C267.467 266.733 267.2 264.067 267.2 261C267.2 257.8 267.467 255.133 268 253H236C236.533 255.133 236.8 257.8 236.8 261C236.8 264.067 236.533 266.733 236 269C236.533 271.133 236.8 273.8 236.8 277C236.8 280.067 236.533 282.733 236 285H268C267.467 282.733 267.2 280.067 267.2 277C267.2 273.8 267.467 271.133 268 269Z" fill="black"></path>
<path d="M406 237C406.533 239.133 406.8 241.8 406.8 245C406.8 248.067 406.533 250.733 406 253C406.533 255.133 406.8 257.8 406.8 261C406.8 264.067 406.533 266.733 406 269H398C398.533 271.133 398.8 273.8 398.8 277C398.8 280.067 398.533 282.733 398 285H390C390.533 287.133 390.8 289.8 390.8 293C390.8 296.067 390.533 298.733 390 301H342C341.467 298.733 341.2 296.067 341.2 293C341.2 289.8 341.467 287.133 342 285C341.467 282.733 341.2 280.067 341.2 277C341.2 273.8 341.467 271.133 342 269C341.467 266.733 341.2 264.067 341.2 261C341.2 257.8 341.467 255.133 342 253C341.467 250.733 341.2 248.067 341.2 245C341.2 241.8 341.467 239.133 342 237C341.467 234.733 341.2 232.067 341.2 229C341.2 225.8 341.467 223.133 342 221C341.467 218.733 341.2 216.067 341.2 213C341.2 209.8 341.467 207.133 342 205C341.467 202.733 341.2 200.067 341.2 197C341.2 193.8 341.467 191.133 342 189H390C390.533 191.133 390.8 193.8 390.8 197C390.8 200.067 390.533 202.733 390 205H398C398.533 207.133 398.8 209.8 398.8 213C398.8 216.067 398.533 218.733 398 221H406C406.533 223.133 406.8 225.8 406.8 229C406.8 232.067 406.533 234.733 406 237ZM390 269C389.467 266.733 389.2 264.067 389.2 261C389.2 257.8 389.467 255.133 390 253C389.467 250.733 389.2 248.067 389.2 245C389.2 241.8 389.467 239.133 390 237C389.467 234.733 389.2 232.067 389.2 229C389.2 225.8 389.467 223.133 390 221H382C381.467 218.733 381.2 216.067 381.2 213C381.2 209.8 381.467 207.133 382 205H358C358.533 207.133 358.8 209.8 358.8 213C358.8 216.067 358.533 218.733 358 221C358.533 223.133 358.8 225.8 358.8 229C358.8 232.067 358.533 234.733 358 237C358.533 239.133 358.8 241.8 358.8 245C358.8 248.067 358.533 250.733 358 253C358.533 255.133 358.8 257.8 358.8 261C358.8 264.067 358.533 266.733 358 269C358.533 271.133 358.8 273.8 358.8 277C358.8 280.067 358.533 282.733 358 285H382C381.467 282.733 381.2 280.067 381.2 277C381.2 273.8 381.467 271.133 382 269H390Z" fill="black"></path>
<defs>
<pattern id="pattern0_15_15" patternUnits="userSpaceOnUse" patternTransform="matrix(128 0 0 212 53 138)" preserveAspectRatio="none" viewBox="0 -3 128 212" width="1" height="1">
<use xlink:href="#pattern0_15_15_inner" transform="translate(-128 -212)"></use>
<use xlink:href="#pattern0_15_15_inner" transform="translate(0 -212)"></use>
<use xlink:href="#pattern0_15_15_inner" transform="translate(-128 0)"></use>
<g id="pattern0_15_15_inner">
<mask id="path-4-outside-1_15_15" maskUnits="userSpaceOnUse" x="0" y="-3" width="131" height="218" fill="black">
<rect fill="white" y="-3" width="131" height="218"></rect>
<path d="M0 0H128V212H0V0Z"></path>
</mask>
<path d="M128 0H131V-3H128V0ZM128 212V215H131V212H128ZM0 0V3H128V0V-3H0V0ZM128 0H125V212H128H131V0H128ZM128 212V209H0V212V215H128V212Z" fill="white" mask="url(#path-4-outside-1_15_15)"></path>
</g>
</pattern></defs>
</svg></svg><style>@media (prefers-color-scheme: light) { :root { filter: none; } }
@media (prefers-color-scheme: dark) { :root { filter: none; } }
</style></svg>